<svg xmlns="http://www.w3.org/2000/svg" width="40" height="40" viewBox="0 0 40 40">
  <defs>
    <filter id="a" width="1.089" height="1.089" x="-.044" y="-.044">
      <feGaussianBlur stdDeviation=".958"/>
    </filter>
  </defs>
  <path d="m20.001 36.254-12.321-28 .062 23.199L19.97 3.417 2.664 19.86l29.613-11.65-24.535.059 29.652 11.56L20.001 3.47l12.323 27.999L32.26 8.27 20.035 36.306l17.304-16.445-29.613 11.65 24.535-.058-29.652-11.56Z" style="fill:none;fill-opacity:.75;fill-rule:evenodd;stroke:#000;stroke-width:.213432;stroke-linecap:butt;stroke-linejoin:miter;stroke-miterlimit:4;stroke-dashoffset:0;stroke-opacity:.347418;marker:none;marker-start:none;marker-mid:none;marker-end:none"/>
  <text xml:space="preserve" x="24.036" y="222.777" style="font-style:normal;font-weight:400;font-size:5.14781px;line-height:0%;font-family:&quot;Bitstream Vera Sans&quot;;fill:#000;fill-opacity:1;stroke:none;stroke-width:.428984px;stroke-linecap:butt;stroke-linejoin:miter;stroke-opacity:1"><tspan x="24.036" y="222.777" style="font-size:17.1594px;line-height:1.25;stroke-width:.428984px"> </tspan></text>
  <path d="m104.595 4260.99-19.299-46.383.098 38.429 19.15-46.444-27.104 27.242 46.382-19.299-38.428.097 46.443 19.151-27.242-27.105 19.3 46.383-.098-38.429-19.15 46.444 27.104-27.242-46.383 19.299 38.429-.097-46.444-19.151z" style="fill:none;fill-opacity:.75;fill-rule:evenodd;stroke:#000;stroke-width:.343796;stroke-linecap:butt;stroke-linejoin:miter;stroke-miterlimit:4;stroke-dashoffset:0;stroke-opacity:.347418;marker:none;marker-start:none;marker-mid:none;marker-end:none;filter:url(#a)" transform="matrix(.63988 0 0 .60508 -47.02 -2542.645)"/>
  <path d="M19.093 19.725c-.112.046-.122-.116-.082-.172.107-.146.34-.092.447.022.19.202.094.51-.125.656-.318.213-.76.084-.963-.209-.268-.388-.086-.905.325-1.135.515-.288 1.185-.077 1.476.395.35.57.08 1.3-.524 1.61-.709.365-1.608.072-1.985-.579-.435-.749-.075-1.693.72-2.083.902-.443 2.032-.067 2.494.762.518.928.07 2.085-.917 2.555-1.094.52-2.453.062-3-.945-.602-1.106-.064-2.477 1.113-3.026 1.285-.598 2.873-.057 3.506 1.127.685 1.284.059 2.869-1.31 3.496-1.475.677-3.293.052-4.01-1.309-.768-1.46-.053-3.258 1.505-3.964 1.666-.754 3.712-.048 4.513 1.49.853 1.638.05 3.648-1.7 4.432-1.855.832-4.13.044-5.015-1.671-.936-1.815-.044-4.037 1.894-4.9 2.046-.909 4.549-.038 5.517 1.853 1.02 1.991.04 4.425-2.088 5.365-2.235.988-4.966.035-6.018-2.032-1.103-2.167-.035-4.814 2.282-5.832 2.424-1.065 5.383-.03 6.519 2.213 1.187 2.343.03 5.201-2.476 6.297-2.613 1.143-5.8.026-7.019-2.393-1.27-2.519-.025-5.588 2.67-6.762 2.801-1.22 6.215-.02 7.518 2.573 1.353 2.695.02 5.975-2.863 7.226-2.99 1.298-6.63.017-8.017-2.752-1.437-2.87-.016-6.362 3.056-7.69 3.179-1.375 7.046-.013 8.516 2.932 1.52 3.045.01 6.748-3.25 8.154-3.366 1.452-7.46.008-9.013-3.112-1.603-3.22-.007-7.134 3.441-8.617 3.556-1.529 7.876-.004 9.512 3.291 1.686 3.395.002 7.52-3.634 9.08-3.743 1.606-8.29 0-10.01-3.47-1.768-3.57.004-7.905 3.827-9.542 3.931-1.684 8.705.004 10.507 3.649 1.851 3.744-.007 8.29-4.02 10.004-4.118 1.76-9.117-.01-11.002-3.828-1.934-3.919.012-8.674 4.21-10.466 4.307-1.838 9.533.013 11.5 4.007 2.017 4.092-.017 9.058-4.403 10.927-4.494 1.915-9.945-.018-11.995-4.185-2.1-4.268.02-9.443 4.595-11.39 4.68-1.99 10.358.023 12.491 4.365 2.182 4.441-.026 9.827-4.787 11.85-4.868 2.068-10.77-.027-12.987-4.543-2.265-4.615.03-10.21 4.98-12.31 5.055-2.145 11.182.03 13.481 4.72 2.348 4.79-.035 10.595-5.17 12.772-5.243 2.222-11.596-.036-13.978-4.9-2.43-4.963.04-10.977 5.363-13.23 5.429-2.3 12.007.039 14.471 5.076 2.513 5.138-.044 11.361-5.553 13.692-5.616 2.375-12.42-.044-14.966-5.256-2.596-5.31.049-11.743 5.745-14.15 5.802-2.453 12.83.047 15.46 5.432 2.677 5.485-.054 12.127-5.936 14.611-5.99 2.53-13.243-.052-15.955-5.61-2.76-5.659.059-12.51 6.128-15.07 6.176-2.606 13.654.056 16.448 5.788 2.842 5.831-.063 12.892-6.319 15.53-6.362 2.682-14.065-.062-16.941-5.967-2.925-6.005.067-13.275 6.51-15.989 6.548-2.758 14.475.066 17.434 6.144 3.007 6.179-.072 13.657-6.7 16.448-6.736 2.835-14.887-.07-17.928-6.322-3.09-6.352.076-14.039 6.891-16.906 6.922-2.912 15.297.074 18.42 6.5 3.172 6.524-.08 14.42-7.081 17.364a14.282 13.285 0 0 1-6.183 1.171" style="fill:none;fill-opacity:.75;fill-rule:evenodd;stroke:#000;stroke-width:.120487;stroke-linecap:butt;stroke-linejoin:miter;stroke-miterlimit:4;stroke-dasharray:.120487,1.44584;stroke-dashoffset:0;stroke-opacity:1;marker:none;marker-start:none;marker-mid:none;marker-end:none"/>
  <path d="M20.057 36.251 7.54 8.348l.063 23.118 12.422-27.94L2.443 19.915l30.086-11.61-24.927.058 30.126 11.521-17.67-16.306 12.518 27.903-.063-23.118-12.422 27.94 17.581-16.388-30.087 11.61 24.928-.059-30.127-11.52Z" style="fill:none;fill-opacity:.75;fill-rule:evenodd;stroke:#000;stroke-width:.214763;stroke-linecap:butt;stroke-linejoin:miter;stroke-miterlimit:4;stroke-dashoffset:0;stroke-opacity:1;marker:none;marker-start:none;marker-mid:none;marker-end:none"/>
  <ellipse cx="7.566" cy="8.373" rx="2.063" ry="1.952" style="fill:#cc0100;fill-opacity:1;stroke:#2a4200;stroke-width:.156137;stroke-opacity:1"/>
  <ellipse cx="2.715" cy="20.028" rx="2.063" ry="1.952" style="fill:#cc0100;fill-opacity:1;stroke:#2a4200;stroke-width:.156137;stroke-opacity:1"/>
  <ellipse cx="20.113" cy="3.076" rx="2.063" ry="1.952" style="fill:#cc0100;fill-opacity:1;stroke:#2a4200;stroke-width:.156137;stroke-opacity:1"/>
  <ellipse cx="32.269" cy="8.318" rx="2.063" ry="1.952" style="fill:#cc0100;fill-opacity:1;stroke:#2a4200;stroke-width:.156137;stroke-opacity:1"/>
  <ellipse cx="37.4" cy="20.028" rx="2.063" ry="1.952" style="fill:#cc0100;fill-opacity:1;stroke:#2a4200;stroke-width:.156137;stroke-opacity:1"/>
  <ellipse cx="20.225" cy="36.645" rx="2.063" ry="1.952" style="fill:#cc0100;fill-opacity:1;stroke:#2a4200;stroke-width:.156137;stroke-opacity:1"/>
  <ellipse cx="7.756" cy="31.627" rx="2.063" ry="1.952" style="fill:#cc0100;fill-opacity:1;stroke:#2a4200;stroke-width:.156137;stroke-opacity:1"/>
  <ellipse cx="32.158" cy="31.515" rx="2.063" ry="1.952" style="fill:#cc0100;fill-opacity:1;stroke:#2a4200;stroke-width:.156137;stroke-opacity:1"/>
</svg>
