<svg xmlns="http://www.w3.org/2000/svg" width="256" height="256" viewBox="0 0 67.733 67.733"><defs><filter id="a"><feGaussianBlur stdDeviation=".958"/></filter></defs><circle style="opacity:.52100004;fill:#fff;stroke:#fff000;stroke-width:.34369376;stroke-linecap:round;stroke-linejoin:round;stroke-miterlimit:4;stroke-dasharray:none;stroke-opacity:0;paint-order:stroke markers fill" cx="33.923" cy="263.266" r="33.545" transform="translate(0 -229.267)"/><g style="display:inline"><path transform="matrix(1.0819 0 0 1.02293 -79.189 -4297.22)" d="m104.595 4260.99-19.299-46.383.098 38.429 19.15-46.444-27.104 27.242 46.382-19.299-38.428.097 46.443 19.151-27.242-27.105 19.3 46.383-.098-38.429-19.15 46.444 27.104-27.242-46.383 19.299 38.429-.097-46.444-19.151z" style="opacity:1;fill:none;fill-opacity:.75;fill-rule:evenodd;stroke:#000;stroke-width:.34379637;stroke-linecap:butt;stroke-linejoin:miter;stroke-miterlimit:4;stroke-dashoffset:0;stroke-opacity:.34741785;marker:none;marker-start:none;marker-mid:none;marker-end:none"/><path transform="matrix(1.08431 0 0 1.02534 -79.598 -4308.62)" d="m104.595 4260.99-19.299-46.383.098 38.429 19.15-46.444-27.104 27.242 46.382-19.299-38.428.097 46.443 19.151-27.242-27.105 19.3 46.383-.098-38.429-19.15 46.444 27.104-27.242-46.383 19.299 38.429-.097-46.444-19.151z" style="opacity:1;fill:none;fill-opacity:.75;fill-rule:evenodd;stroke:#000;stroke-width:.34379637;stroke-linecap:butt;stroke-linejoin:miter;stroke-miterlimit:4;stroke-dashoffset:0;stroke-opacity:.34741785;marker:none;marker-start:none;marker-mid:none;marker-end:none;filter:url(#a)"/><path transform="matrix(-.09067 .31476 -.33838 -.08434 2247.498 550.762)" d="M103.198 6518.42c.37.459-.43.724-.76.611-.87-.3-.888-1.46-.45-2.114.775-1.162 2.447-1.126 3.451-.302 1.467 1.202 1.372 3.442.156 4.782-1.614 1.777-4.439 1.62-6.106.01-2.092-2.02-1.871-5.434.134-7.427 2.422-2.406 6.427-2.122 8.743.278 2.722 2.822 2.374 7.42-.421 10.057-3.22 3.038-8.411 2.626-11.368-.564-3.354-3.617-2.878-9.4.705-12.677 4.014-3.67 10.39-3.13 13.985.848 3.985 4.409 3.381 11.376-.99 15.29-4.803 4.3-12.362 3.632-16.593-1.131-4.616-5.198-3.884-13.348 1.272-17.896 5.59-4.931 14.333-4.136 19.197 1.413 5.246 5.983 4.387 15.316-1.554 20.496-6.376 5.56-16.298 4.638-21.795-1.694-5.875-6.768-4.889-17.28 1.835-23.092 7.16-6.19 18.261-5.14 24.389 1.974 6.503 7.552 5.39 19.243-2.115 25.685-7.943 6.818-20.222 5.64-26.98-2.255-7.13-8.334-5.89-21.201 2.396-28.272 8.724-7.446 22.18-6.141 29.565 2.534 7.759 9.114 6.39 23.157-2.675 30.857-9.504 8.072-24.134 6.64-32.148-2.814-8.385-9.894-6.89-25.111 2.954-33.438 10.283-8.699 26.087-7.14 34.728 3.093 9.011 10.672 7.39 27.063-3.232 36.017-11.062 9.324-28.039 7.639-37.306-3.372-9.636-11.45-7.888-29.013 3.511-38.593 11.839-9.949 29.987-8.138 39.88 3.65 10.261 12.227 8.387 30.96-3.789 41.166-12.615 10.574-31.934 8.636-42.452-3.928-10.886-13.003-8.885-32.907 4.067-43.737 13.39-11.197 33.88-9.134 45.022 4.206 11.51 13.778 9.383 34.851-4.344 46.306-14.167 11.821-35.824 9.631-47.59-4.483-12.133-14.554-9.88-36.795 4.621-48.873 14.94-12.445 37.766-10.129 50.156 4.76 12.756 15.328 10.377 38.737-4.899 51.438-15.714 13.067-39.707 10.625-52.72-5.037-13.378-16.101-10.873-40.677 5.176-54.001 16.488-13.69 41.647-11.122 55.282 5.314 14 16.874 11.37 42.615-5.452 56.562-17.261 14.311-43.585 11.618-57.843-5.59-14.622-17.647-11.865-44.554 5.729-59.123 18.033-14.932 45.522-12.113 60.402 5.867 15.243 18.42 12.36 46.49-6.005 61.68-18.806 15.555-47.458 12.61-62.96-6.142-15.864-19.191-12.856-48.426 6.282-64.238 19.576-16.174 49.392-13.104 65.515 6.42 16.484 19.962 13.351 50.36-6.557 66.792-20.348 16.795-51.327 13.6-68.07-6.695-17.105-20.733-13.847-52.293 6.833-69.346 21.118-17.415 53.26-14.094 70.623 6.97 17.725 21.504 14.34 54.226-7.109 71.9-21.888 18.034-55.19 14.587-73.174-7.247-18.345-22.273-14.836-56.157 7.384-74.45 22.658-18.654 57.121-15.083 75.724 7.522 18.965 23.042 15.33 58.086-7.659 77-23.427 19.273-59.051 15.576-78.274-7.797-19.583-23.812-15.823-60.017 7.934-79.549 24.197-19.892 60.98-16.07 80.823 8.072 20.202 24.58 16.317 61.945-8.21 82.096-24.965 20.511-62.908 16.564-83.369-8.347-20.82-25.35-16.81-63.872 8.485-84.642 25.733-21.13 64.835-17.057 85.914 8.622 21.44 26.117 17.304 65.798-8.759 87.187-26.501 21.748-66.762 17.55-88.46-8.896-22.056-26.886-17.796-67.725 9.034-89.732 27.27-22.366 68.688-18.043 91.004 9.171 22.674 27.653 18.29 69.65-9.309 92.275-28.036 22.983-70.612 18.536-93.545-9.446-23.293-28.42-18.783-71.574 9.582-94.816 28.804-23.601 72.537-19.03 96.088 9.72a69.085 69.085 0 0 1 13.625 27.311" style="fill:none;fill-opacity:.75;fill-rule:evenodd;stroke:#000;stroke-width:.60429269;stroke-linecap:butt;stroke-linejoin:miter;stroke-miterlimit:4;stroke-dasharray:.60429269,7.2515122;stroke-dashoffset:0;stroke-opacity:1;marker:none;marker-start:none;marker-mid:none;marker-end:none"/><path transform="matrix(1.0992 0 0 1.01942 -80.904 -4282.265)" d="m104.595 4260.99-19.299-46.383.098 38.429 19.15-46.444-27.104 27.242 46.382-19.299-38.428.097 46.443 19.151-27.242-27.105 19.3 46.383-.098-38.429-19.15 46.444 27.104-27.242-46.383 19.299 38.429-.097-46.444-19.151z" style="fill:none;fill-opacity:.75;fill-rule:evenodd;stroke:#000;stroke-width:.34379637;stroke-linecap:butt;stroke-linejoin:miter;stroke-miterlimit:4;stroke-dashoffset:0;stroke-opacity:1;marker:none;marker-start:none;marker-mid:none;marker-end:none"/><ellipse ry="3.307" rx="3.496" cy="14.237" cx="12.901" style="opacity:1;fill:#cc0100;fill-opacity:1;stroke:#2a4200;stroke-width:.26458332;stroke-opacity:1"/><ellipse ry="3.307" rx="3.496" cy="33.986" cx="4.68" style="opacity:1;fill:#cc0100;fill-opacity:1;stroke:#2a4200;stroke-width:.26458332;stroke-opacity:1"/><ellipse ry="3.307" rx="3.496" cy="5.26" cx="34.162" style="opacity:1;fill:#cc0100;fill-opacity:1;stroke:#2a4200;stroke-width:.26458332;stroke-opacity:1"/><ellipse ry="3.307" rx="3.496" cy="14.143" cx="54.762" style="opacity:1;fill:#cc0100;fill-opacity:1;stroke:#2a4200;stroke-width:.26458332;stroke-opacity:1"/><ellipse ry="3.307" rx="3.496" cy="33.986" cx="63.455" style="opacity:1;fill:#cc0100;fill-opacity:1;stroke:#2a4200;stroke-width:.26458332;stroke-opacity:1"/><ellipse ry="3.307" rx="3.496" cy="62.146" cx="34.351" style="opacity:1;fill:#cc0100;fill-opacity:1;stroke:#2a4200;stroke-width:.26458332;stroke-opacity:1"/><ellipse ry="3.307" rx="3.496" cy="53.641" cx="13.222" style="opacity:1;fill:#cc0100;fill-opacity:1;stroke:#2a4200;stroke-width:.26458332;stroke-opacity:1"/><ellipse ry="3.307" rx="3.496" cy="53.452" cx="54.573" style="opacity:1;fill:#cc0100;fill-opacity:1;stroke:#2a4200;stroke-width:.26458332;stroke-opacity:1"/></g></svg>
